<?xml version="1.0" encoding="utf-8"?>
<!-- Uploaded to: SVG Repo, www.svgrepo.com, Generator: SVG Repo Mixer Tools -->
<svg fill="#000000" width="800px" height="800px" viewBox="0 0 20 20" xmlns="http://www.w3.org/2000/svg">
<g>
	<path d="M16.9,11.61h-0.13v-0.5c0-0.32-0.29-0.48-0.51-0.54l-0.35-0.67c-0.03-0.06-0.09-0.1-0.15-0.1l-2.61-0.33l-2.4-3.8
		c-0.04-0.06-0.1-0.09-0.17-0.09H4.44c-0.08,0-0.16,0.05-0.19,0.13L2.85,11.28H1.48c-0.61,0-0.95,0.35-0.95,0.95v1.41
		C0.23,13.66,0,13.91,0,14.21v0.52c0,0.32,0.26,0.59,0.59,0.59h1.78c0.11,0.96,0.92,1.7,1.91,1.7s1.8-0.75,1.91-1.7h4.69
		c0.11,0.96,0.92,1.7,1.91,1.7c0.99,0,1.8-0.75,1.91-1.7h1.78c0.32,0,0.59-0.26,0.59-0.59v-0.52C17.06,13.89,17,13.61,16.9,11.61z
		 M4.28,16.12c-0.56,0-1.02-0.46-1.02-1.02c0-0.56,0.46-1.02,1.02-1.02c0.56,0,1.02,0.46,1.02,1.02C5.3,15.66,4.84,16.12,4.28,16.12z
		 M12.79,16.12c-0.56,0-1.02-0.46-1.02-1.02c0-0.56,0.46-1.02,1.02-1.02c0.56,0,1.02,0.46,1.02,1.02
		C13.81,15.66,13.35,16.12,12.79,16.12z"/>
	<path d="M16.26,8.74c0.04,0.01,0.08,0.01,0.12,0.01h0c0.44,0,0.82-0.33,0.88-0.77l0.11-0.8c0.02-0.14-0.02-0.28-0.1-0.39
		c-0.07-0.09-0.16-0.15-0.27-0.19c-0.12-0.16-0.31-0.27-0.51-0.3c-0.04,0-0.07-0.01-0.11-0.01c-0.39,0-0.72,0.29-0.77,0.67
		l-0.11,0.77C15.43,8.22,15.77,8.67,16.26,8.74z"/>
	<path d="M22.97,10.91l-1.74-0.77c-0.03-0.02-0.06-0.03-0.09-0.04c-0.01,0-0.02-0.01-0.02-0.01c-0.05-0.01-0.1-0.02-0.15-0.02
		c-0.11,0-0.23,0.03-0.32,0.1c0,0,0,0,0,0l-0.79,0.57l-1.15-1.31l0.61-0.06c0.13-0.01,0.25-0.06,0.34-0.16
		c0.01-0.01,0.81-1.05,0.81-1.05c0.08-0.11,0.12-0.24,0.1-0.37c-0.02-0.13-0.08-0.25-0.19-0.33c-0.09-0.07-0.19-0.1-0.31-0.1
		c-0.16,0-0.3,0.07-0.4,0.19L18.9,8.47c0,0-1.52,0.14-1.53,0.14c-0.1,0.02-0.2,0.07-0.28,0.14l-0.52,0.45
		c-0.1,0.08-0.16,0.19-0.19,0.31c-0.01,0.02-0.23,2.06-0.23,2.07c-0.01,0.12,0.03,0.24,0.1,0.34c0.01,0.01,0.86,0.96,0.86,0.96
		c0,0,0.01,0.01,0.01,0.01c0.1,0.1,0.23,0.15,0.37,0.15c0.15,0,0.29-0.06,0.39-0.17l0.01-0.01c0.2-0.21,0.2-0.55-0.01-0.76
		l-0.62-0.68l0.05-0.43l2.01,2.38l-0.46,1.21c-0.06,0.13-0.07,0.29-0.02,0.42c0.05,0.14,0.16,0.26,0.29,0.32l0.01,0.01
		c0.08,0.04,0.16,0.05,0.24,0.05c0.22,0,0.42-0.13,0.51-0.33c0-0,0.61-1.61,0.61-1.61c0.01-0.04,0.01-0.07,0.02-0.09
		c0.03-0.15,0-0.3-0.09-0.42c0-0.01-0.62-0.75-0.62-0.75l1.09-0.82l1.46,0.65c0.07,0.03,0.15,0.05,0.23,0.05
		c0.22,0,0.42-0.13,0.51-0.33l0.01-0.02C23.38,11.36,23.25,11.03,22.97,10.91z"/>
	<path d="M13.15,10.53l1.78,0.75c0.04,0.02,0.08,0.02,0.12,0.02c0.12,0,0.23-0.07,0.28-0.18c0.06-0.15-0.01-0.33-0.16-0.39l-1.78-0.75
		c-0.15-0.06-0.33,0.01-0.39,0.16C12.93,10.29,13,10.47,13.15,10.53z"/>
	<path d="M14.92,10.08c0.05,0.11,0.16,0.17,0.27,0.17c0.04,0,0.09-0.01,0.13-0.03c0.15-0.07,0.21-0.25,0.14-0.4l-1.6-3.38
		c-0.07-0.15-0.25-0.21-0.4-0.14c-0.15,0.07-0.21,0.25-0.14,0.4L14.92,10.08z"/>
	<path d="M20.96,8.9c0.06,0,0.12-0.02,0.17-0.05l1.85-1.28c0.14-0.09,0.17-0.28,0.08-0.42c-0.09-0.14-0.28-0.17-0.42-0.08l-1.85,1.28
		c-0.14,0.09-0.17,0.28-0.08,0.42C20.77,8.85,20.87,8.9,20.96,8.9z"/>
	<path d="M21.82,9.13c-0.16-0.03-0.32,0.07-0.35,0.23c-0.03,0.16,0.07,0.32,0.23,0.35l1.2,0.25c0.02,0,0.04,0.01,0.06,0.01
		c0.14,0,0.26-0.1,0.29-0.24c0.03-0.16-0.07-0.32-0.23-0.35L21.82,9.13z"/>
</g>
</svg>